<svg width="241" height="239" viewBox="0 0 241 239" fill="none" xmlns="http://www.w3.org/2000/svg">
<path d="M120.278 166.151C97.8336 166.151 79.1125 150.196 74.6667 129H0C5.27914 190.638 56.779 239 119.5 239C182.223 239 233.778 190.638 239 129H165.889C161.445 150.254 142.722 166.151 120.278 166.151V166.151Z" fill="#fff"/>
<path d="M152 119.5C151.936 119.5 151.936 119.5 152 119.5C151.936 115.61 151.235 111.912 149.962 108.47C145.502 96.4811 133.972 88 120.468 88C106.964 88 95.4344 96.5447 90.9746 108.47C89.6659 112 88.9972 115.735 89 119.5H89.0635C89.0635 123.389 89.7649 127.088 91.0381 130.53C95.4979 142.519 107.028 151 120.532 151C134.036 151 145.566 142.455 150.025 130.53C151.299 127.149 152 123.389 152 119.5V119.5Z" fill="#fff"/>
<path d="M120.75 72.8678C143.189 72.8678 161.906 88.8149 166.351 110H241C235.724 48.3375 184.234 0 121.472 0C58.7083 0 7.27579 48.3375 2 109.944H75.1494C79.592 88.7571 98.3108 72.8678 120.75 72.8678Z" fill="#fff"/>
</svg>
